<svg id="visual" viewBox="0 0 900 600" width="900" height="600" xmlns="http://www.w3.org/2000/svg" xmlns:xlink="http://www.w3.org/1999/xlink" version="1.1"><path d="M0 97L82 73L164 43L245 85L327 115L409 85L491 103L573 97L655 73L736 61L818 79L900 55L900 0L818 0L736 0L655 0L573 0L491 0L409 0L327 0L245 0L164 0L82 0L0 0Z" fill="#00cc8e"></path><path d="M0 217L82 163L164 205L245 157L327 235L409 169L491 175L573 235L655 157L736 187L818 181L900 217L900 53L818 77L736 59L655 71L573 95L491 101L409 83L327 113L245 83L164 41L82 71L0 95Z" fill="#00b98a"></path><path d="M0 313L82 211L164 289L245 235L327 313L409 241L491 271L573 337L655 241L736 289L818 283L900 283L900 215L818 179L736 185L655 155L573 233L491 173L409 167L327 233L245 155L164 203L82 161L0 215Z" fill="#00a784"></path><path d="M0 529L82 319L164 397L245 505L327 511L409 493L491 451L573 409L655 469L736 463L818 517L900 523L900 281L818 281L736 287L655 239L573 335L491 269L409 239L327 311L245 233L164 287L82 209L0 311Z" fill="#00957c"></path><path d="M0 601L82 601L164 601L245 601L327 601L409 601L491 601L573 601L655 601L736 601L818 601L900 601L900 521L818 515L736 461L655 467L573 407L491 449L409 491L327 509L245 503L164 395L82 317L0 527Z" fill="#038373"></path></svg>